<svg width="130" height="27" viewBox="0 0 130 27" fill="none" xmlns="http://www.w3.org/2000/svg">
<path d="M17.171 23.065H0V26.628H17.171V23.065ZM124.16 11.141L129.576 5.161H125.55L121.112 10.138V5.16H117.896V17.714H121.112V12.427L125.858 17.714H130L124.16 11.141ZM112.237 9.842H107.799V5.16H104.597V17.714H107.799V12.762H112.237V17.714H115.453V5.16H112.237V9.842ZM19.06 11.964C18.983 14.305 18.687 14.768 17.362 14.768V17.714H17.851C21.131 17.714 21.915 16.016 22.044 12.247L22.172 8.08H25.246V17.714H28.462V5.16H19.278L19.06 11.964ZM36.453 8.967H34.138V5.16H30.922V17.714H36.492C39.99 17.714 41.238 15.437 41.238 13.302C41.238 10.537 39.502 8.967 36.453 8.967ZM36.196 14.948H34.126V11.758H36.196C37.315 11.758 37.984 12.248 37.984 13.302C37.984 14.434 37.341 14.948 36.196 14.948ZM51.692 4.877V0.208H48.477V4.864C44.798 5.173 42.329 7.784 42.329 11.424C42.329 15.077 44.799 17.688 48.477 17.997V22.717H51.692V17.997C55.371 17.701 57.841 15.077 57.841 11.424C57.841 7.771 55.371 5.16 51.692 4.877ZM48.477 14.974C46.689 14.73 45.583 13.392 45.583 11.424C45.583 9.456 46.702 8.118 48.477 7.874V14.974ZM51.692 14.974V7.887C53.48 8.131 54.586 9.469 54.586 11.437C54.586 13.392 53.48 14.73 51.692 14.974ZM69.882 13.85V9.632C69.882 6.557 67.914 4.615 64.622 4.615C61.212 4.615 59.399 6.66 59.245 8.808H62.512C62.627 8.345 63.116 7.535 64.634 7.535C65.882 7.535 66.679 8.114 66.679 9.632H63.489C60.634 9.632 58.936 11.124 58.936 13.619C58.936 16.229 60.788 18.005 63.464 18.005C65.419 18.005 66.512 17.079 66.988 16.371C67.412 17.221 68.351 17.683 69.573 17.683H70.693V14.79C70.113 14.816 69.882 14.546 69.882 13.851V13.85ZM66.679 13.027C66.679 14.481 65.65 15.304 64.312 15.304C63.155 15.304 62.242 14.879 62.242 13.632C62.242 12.41 63.245 12.204 64.12 12.204H66.68V13.027H66.679ZM83.645 6.948H80.057V3.398H88.365V0.208H76.688V17.714H83.646C87.505 17.714 89.704 15.797 89.704 12.273C89.704 8.954 87.492 6.948 83.646 6.948H83.645ZM83.478 14.549H80.044V9.996H83.478C85.266 9.996 86.269 10.819 86.269 12.273C86.269 13.765 85.266 14.55 83.478 14.55V14.549ZM101.986 13.85V9.632C101.986 6.557 100.018 4.615 96.726 4.615C93.316 4.615 91.503 6.66 91.349 8.808H94.603C94.719 8.345 95.208 7.535 96.725 7.535C97.973 7.535 98.771 8.114 98.771 9.632H95.581C92.725 9.632 91.027 11.124 91.027 13.619C91.027 16.229 92.879 18.005 95.555 18.005C97.51 18.005 98.603 17.079 99.079 16.371C99.504 17.221 100.443 17.683 101.665 17.683H102.784V14.79C102.205 14.816 101.986 14.546 101.986 13.851V13.85ZM98.77 13.027C98.77 14.481 97.742 15.304 96.404 15.304C95.246 15.304 94.333 14.879 94.333 13.632C94.333 12.41 95.336 12.204 96.211 12.204H98.771V13.027H98.77ZM11.702 2.611C11.212 1.158 10.647 0 8.718 0C6.788 0 6.184 1.145 5.669 2.611C0.28 17.917 0.357 17.711 0.357 17.711H3.881L5.103 14.123H11.882L13.014 17.712H16.756L11.702 2.612V2.611ZM6.132 11.087L8.537 3.936H8.627L10.904 11.087H6.132Z" fill="white"/>
</svg>
